<?xml version="1.0" encoding="utf-8"?>
<!-- Generator: Adobe Illustrator 24.2.1, SVG Export Plug-In . SVG Version: 6.00 Build 0)  -->
<svg version="1.1" id="Ebene_1" xmlns="http://www.w3.org/2000/svg" xmlns:xlink="http://www.w3.org/1999/xlink" x="0px" y="0px"
	 viewBox="0 0 261.5 261.2" style="enable-background:new 0 0 261.5 261.2;" xml:space="preserve">
<style type="text/css">
	.st0{fill:#E8484F;}
</style>
<g>
	<path class="st0" d="M111.9,42.1l0.8-1.2c1,1,2.1,1.5,3.4,1.3c1.8-0.3,2.5-1.5,2.2-3.6l-1.3-8.8l-5.3,0.8l-0.2-1.3l6.8-1l1.5,10
		c0.5,3.1-0.8,4.8-3.5,5.2C114.6,43.8,113,43.3,111.9,42.1z"/>
	<path class="st0" d="M133.8,37.1l-9.2,0.2c0.2,2.3,2,3.8,4.4,3.7c1.3,0,2.5-0.5,3.3-1.5l0.9,0.9c-1,1.2-2.5,1.9-4.2,1.9
		c-3.4,0.1-5.8-2.2-5.9-5.5c-0.1-3.3,2.2-5.6,5.3-5.7c3.1-0.1,5.4,2.2,5.5,5.5C133.8,36.8,133.8,37,133.8,37.1z M124.5,36.2l7.8-0.2
		c-0.2-2.2-1.8-3.6-4-3.6C126.2,32.5,124.7,34.1,124.5,36.2z"/>
	<path class="st0" d="M142.4,42.4c-0.6,0.5-1.5,0.6-2.4,0.6c-2.1-0.2-3.1-1.5-2.9-3.5l0.6-6.6l-2-0.2l0.1-1.3l2,0.2l0.2-2.4l1.5,0.1
		l-0.2,2.4l3.3,0.3l-0.1,1.3l-3.3-0.3l-0.6,6.5c-0.1,1.3,0.5,2.1,1.7,2.2c0.6,0.1,1.2-0.1,1.7-0.4L142.4,42.4z"/>
	<path class="st0" d="M152.4,43.7l-0.2,1.2l-8.8-1.8l0.2-1l8.5-7.2l-6.7-1.4l0.3-1.2l8.5,1.7l-0.2,1l-8.5,7.2L152.4,43.7z"/>
	<path class="st0" d="M160.4,46.8c-0.7,0.3-1.6,0.3-2.5,0c-2-0.6-2.7-2.1-2.1-4l2-6.3l-1.9-0.6l0.4-1.2l1.9,0.6L159,33l1.4,0.5
		l-0.7,2.3l3.2,1l-0.4,1.2l-3.2-1l-2,6.3c-0.4,1.2,0,2.1,1.2,2.5c0.6,0.2,1.2,0.2,1.7,0L160.4,46.8z"/>
	<path class="st0" d="M178,50.4l-8.1-4.3c-0.9,2.1-0.1,4.3,2,5.4c1.2,0.6,2.5,0.8,3.7,0.3l0.3,1.2c-1.4,0.6-3.1,0.4-4.6-0.4
		c-3-1.6-4-4.8-2.5-7.7c1.5-2.9,4.6-3.9,7.4-2.4c2.7,1.5,3.7,4.5,2.1,7.4C178.2,50.1,178.1,50.2,178,50.4z M170.4,45.1l6.9,3.7
		c0.8-2,0.2-4.1-1.7-5.1C173.7,42.7,171.6,43.3,170.4,45.1z"/>
	<path class="st0" d="M184,47.2l1.2,0.8l-6.1,9.2l-1.2-0.8L184,47.2z M185.6,44.2c0.3-0.5,1-0.6,1.5-0.3c0.5,0.3,0.6,1,0.3,1.5
		c-0.3,0.5-1,0.7-1.5,0.3C185.4,45.3,185.3,44.6,185.6,44.2z"/>
	<path class="st0" d="M194.1,60.9l-4.1,4.9l-1.1-1l4-4.8c1.5-1.8,1.3-3.5-0.3-4.8c-1.8-1.5-3.9-1.3-5.5,0.6l-3.7,4.4l-1.1-1l7.1-8.4
		l1.1,0.9l-1.3,1.6c1.5-0.5,3.1-0.2,4.6,1.1C195.7,56.1,196.1,58.5,194.1,60.9z"/>
	<path class="st0" d="M204.4,64.9l-1.1,1c-0.1-0.1-0.2-0.2-0.2-0.3c-1.6-1.7-3.6-1.7-5.5,0.1l-4.1,3.8l-1-1.1l8.1-7.5l1,1l-1.6,1.5
		C201.5,62.9,203,63.4,204.4,64.9z"/>
	<path class="st0" d="M207.4,78.8l-5.5-7.4c-1.8,1.5-1.9,3.8-0.5,5.8c0.8,1.1,1.9,1.8,3.2,1.9l-0.3,1.2c-1.5-0.1-2.9-1-4-2.3
		c-2-2.8-1.5-6,1.1-8c2.6-1.9,5.9-1.5,7.7,1c1.8,2.5,1.3,5.6-1.3,7.6C207.7,78.6,207.6,78.7,207.4,78.8z M202.9,70.8l4.6,6.3
		c1.6-1.4,1.9-3.6,0.6-5.3C206.9,70,204.7,69.6,202.9,70.8z"/>
	<path class="st0" d="M214.2,78.6l0.8,1.3l-9.5,5.6l-0.8-1.3L214.2,78.6z M217,76.5c0.5-0.3,1.1-0.1,1.5,0.4
		c0.3,0.5,0.2,1.2-0.3,1.5c-0.5,0.3-1.2,0.2-1.5-0.4C216.3,77.5,216.5,76.8,217,76.5z"/>
	<path class="st0" d="M211.9,85.4c3-1.4,6.1-0.2,7.5,2.8c0.8,1.7,0.8,3.4-0.1,4.8l-1.2-0.7c0.7-1.2,0.7-2.4,0.1-3.6
		c-1-2.2-3.3-3-5.7-2c-2.4,1.1-3.1,3.4-2.1,5.6c0.5,1.2,1.5,2,2.8,2.2l-0.2,1.3c-1.7-0.2-3-1.3-3.8-3
		C207.8,90,208.9,86.8,211.9,85.4z"/>
	<path class="st0" d="M221,106.7l-6.1,1.9l-0.4-1.4l6-1.8c2.2-0.7,3-2.2,2.4-4.2c-0.7-2.3-2.5-3.3-4.9-2.5l-5.5,1.7l-0.4-1.4
		l14.9-4.5l0.4,1.4l-6.2,1.9c1.5,0.4,2.6,1.6,3.1,3.4C224.9,103.6,224,105.8,221,106.7z"/>
	<path class="st0" d="M222,120.8l-1.3-9.1c-2.3,0.5-3.5,2.5-3.2,4.8c0.2,1.3,0.8,2.4,1.9,3.1l-0.8,1c-1.3-0.8-2.1-2.2-2.4-3.9
		c-0.5-3.4,1.5-6.1,4.7-6.5c3.2-0.5,5.9,1.4,6.3,4.5c0.5,3.1-1.5,5.6-4.8,6.1C222.3,120.8,222.1,120.8,222,120.8z M221.7,111.6
		l1.1,7.7c2.1-0.5,3.4-2.3,3.1-4.4C225.6,112.8,223.9,111.4,221.7,111.6z"/>
	<path class="st0" d="M223.5,134.3l-6.4,0l0-1.5l6.2,0c2.3,0,3.5-1.2,3.5-3.3c0-2.4-1.5-3.9-4-3.9l-5.8,0l0-1.5l11,0l0,1.4l-2,0
		c1.3,0.8,2.1,2.3,2.1,4.2C228.2,132.4,226.7,134.3,223.5,134.3z"/>
	<path class="st0" d="M217.7,137.5c0.6,0.1,1,0.6,0.9,1.2c-0.1,0.6-0.6,1-1.2,1c-0.6-0.1-1-0.6-1-1.2
		C216.6,137.9,217.1,137.5,217.7,137.5z M231.3,139.2l-0.2,1.7l-10.2-1.4l0.1-1.1L231.3,139.2z"/>
	<path class="st0" d="M214.7,157l0.6,1.2c-1.4,0.3-2.4,1.1-2.9,2.3c-0.7,1.7,0,2.9,2,3.7l8.2,3.3l2-5l1.2,0.5l-2.6,6.4l-9.4-3.8
		c-2.9-1.2-3.7-3.1-2.7-5.7C211.9,158.4,213.1,157.3,214.7,157z"/>
	<path class="st0" d="M207.9,178.3l4.5-8c-2.1-1-4.3-0.2-5.5,1.9c-0.7,1.2-0.8,2.4-0.4,3.6l-1.2,0.3c-0.5-1.4-0.3-3.1,0.5-4.6
		c1.7-3,4.9-3.9,7.7-2.3c2.8,1.6,3.8,4.7,2.3,7.4c-1.5,2.7-4.6,3.5-7.5,1.9C208.2,178.5,208.1,178.4,207.9,178.3z M213.4,170.8
		l-3.8,6.8c2,0.9,4.1,0.3,5.1-1.6C215.7,174.2,215.2,172.1,213.4,170.8z"/>
	<path class="st0" d="M199.1,183.1c-0.1-0.8,0.2-1.6,0.7-2.3c1.2-1.7,2.8-1.9,4.5-0.7l5.4,3.9l1.2-1.6l1,0.7l-1.2,1.6l1.9,1.4
		l-0.9,1.2l-1.9-1.4l-2,2.7l-1-0.7l2-2.7l-5.3-3.9c-1.1-0.8-2-0.6-2.7,0.4c-0.4,0.5-0.6,1.1-0.5,1.7L199.1,183.1z"/>
	<path class="st0" d="M192.8,191.1l-0.9-0.8l6-6.7l0.7,0.7l1.9,11l4.6-5.1l0.9,0.8l-5.8,6.5l-0.7-0.7l-1.9-11L192.8,191.1z"/>
	<path class="st0" d="M186.1,196.4c0.1-0.8,0.6-1.6,1.2-2.1c1.5-1.4,3.2-1.3,4.5,0.2l4.5,5l1.5-1.3l0.8,0.9l-1.5,1.3l1.6,1.8l-1.1,1
		l-1.6-1.8l-2.5,2.2l-0.8-0.9l2.5-2.2l-4.4-4.9c-0.9-1-1.8-1-2.8-0.2c-0.5,0.4-0.8,1-0.8,1.5L186.1,196.4z"/>
	<path class="st0" d="M174.1,209.8l7.8-4.9c-1.4-1.9-3.7-2.2-5.7-1c-1.1,0.7-1.9,1.7-2.1,3l-1.2-0.4c0.2-1.5,1.2-2.9,2.7-3.8
		c2.9-1.8,6.1-1,7.9,1.7c1.7,2.8,1,6-1.6,7.6c-2.6,1.6-5.7,0.9-7.5-1.9C174.3,210.1,174.2,209.9,174.1,209.8z M182.6,205.9l-6.6,4.1
		c1.3,1.7,3.4,2.2,5.3,1.1C183,209.9,183.5,207.8,182.6,205.9z"/>
	<path class="st0" d="M173.8,216.5l-1.3,0.7l-4.8-9.9l1.3-0.6L173.8,216.5z M175.6,219.5c0.2,0.5,0,1.2-0.5,1.4
		c-0.5,0.3-1.2,0.1-1.4-0.4c-0.3-0.5-0.1-1.2,0.5-1.5C174.7,218.7,175.4,219,175.6,219.5z"/>
	<path class="st0" d="M156.9,218.3l-2.1-6l1.4-0.5l2.1,5.9c0.8,2.2,2.3,2.9,4.3,2.2c2.2-0.8,3.1-2.7,2.3-5l-1.9-5.4l1.4-0.5
		l3.7,10.4l-1.3,0.5l-0.7-1.9c-0.3,1.5-1.4,2.8-3.2,3.4C160.2,222.2,158,221.3,156.9,218.3z"/>
	<path class="st0" d="M148.2,225.1l-0.3-1.4c0.1,0,0.2,0,0.4-0.1c2.2-0.5,3.3-2.2,2.7-4.8l-1.2-5.5l1.5-0.3l2.4,10.8l-1.4,0.3
		l-0.5-2.1C151.4,223.7,150.2,224.7,148.2,225.1z"/>
	<path class="st0" d="M134.7,220.8l9.2-1c-0.4-2.3-2.3-3.6-4.7-3.3c-1.3,0.1-2.5,0.8-3.2,1.8l-0.9-0.9c0.8-1.3,2.3-2.1,4-2.3
		c3.4-0.4,6,1.7,6.4,4.9c0.4,3.2-1.6,5.8-4.7,6.2c-3.1,0.3-5.6-1.7-5.9-5C134.7,221.1,134.7,220.9,134.7,220.8z M144,220.8l-7.8,0.9
		c0.4,2.1,2.2,3.4,4.3,3.2C142.6,224.7,144,223,144,220.8z"/>
	<path class="st0" d="M131.5,226.6l-1.5,0l0-11l1.5,0L131.5,226.6z M131.8,230.1c0,0.6-0.5,1-1.1,1.1c-0.6,0-1.1-0.5-1.1-1
		c0-0.6,0.5-1.1,1.1-1.1C131.3,229,131.8,229.5,131.8,230.1z"/>
	<path class="st0" d="M126.7,221.2c-0.3,3.3-2.9,5.3-6.2,5c-1.9-0.2-3.4-1-4.1-2.6l1.2-0.6c0.6,1.2,1.8,1.8,3,1.9
		c2.4,0.2,4.3-1.3,4.5-3.9c0.2-2.6-1.4-4.4-3.8-4.7c-1.3-0.1-2.5,0.3-3.3,1.3l-1-0.9c1-1.3,2.6-1.9,4.5-1.8
		C124.9,215.4,127,217.9,126.7,221.2z"/>
	<path class="st0" d="M103.8,218.3l1.5-6.2l1.4,0.3l-1.5,6.1c-0.5,2.3,0.4,3.7,2.4,4.2c2.3,0.6,4.1-0.5,4.7-3l1.3-5.6l1.4,0.3
		l-3.6,15.1l-1.4-0.3l1.5-6.3c-1.1,1.1-2.7,1.4-4.5,1C104.4,223.3,103,221.3,103.8,218.3z"/>
	<path class="st0" d="M91.1,212l8.5,3.5c0.7-2.2-0.3-4.3-2.6-5.2c-1.2-0.5-2.5-0.5-3.7,0.1l-0.4-1.2c1.4-0.7,3-0.7,4.6-0.1
		c3.2,1.3,4.5,4.3,3.2,7.4c-1.2,3-4.2,4.3-7.1,3.2c-2.9-1.2-4.1-4.1-2.8-7.2C90.9,212.3,91,212.1,91.1,212z M99.2,216.5l-7.2-2.9
		c-0.6,2.1,0.3,4.1,2.2,4.9C96.2,219.2,98.2,218.4,99.2,216.5z"/>
	<path class="st0" d="M78.8,206.5L82,201l1.3,0.8l-3.2,5.4c-1.2,2-0.7,3.6,1.1,4.7c2,1.2,4.1,0.7,5.3-1.5l2.9-5l1.3,0.8l-5.6,9.5
		l-1.2-0.7l1-1.7c-1.4,0.7-3,0.7-4.7-0.3C77.9,211.5,77.1,209.2,78.8,206.5z"/>
	<path class="st0" d="M70.5,210.6l-1.4-1.1l6.4-8l0.9,0.7L70.5,210.6z M78.9,199.8c-0.4,0.5-1,0.6-1.5,0.2c-0.5-0.4-0.6-1-0.2-1.5
		c0.4-0.5,1-0.6,1.5-0.2C79.1,198.7,79.2,199.3,78.9,199.8z"/>
	<path class="st0" d="M63.6,187.4l-1.4-0.1c0.4-1.3,0.3-2.6-0.5-3.6c-1.1-1.4-2.5-1.5-4.2-0.2l-7,5.4l3.3,4.2l-1.1,0.8l-4.2-5.4
		l8-6.2c2.4-1.9,4.6-1.7,6.3,0.5C63.8,184.2,64.1,185.9,63.6,187.4z"/>
	<path class="st0" d="M48.6,170.7l4.7,7.9c1.9-1.3,2.3-3.6,1.1-5.7c-0.7-1.2-1.7-1.9-3-2.2l0.4-1.2c1.5,0.3,2.8,1.3,3.7,2.8
		c1.7,3,0.9,6.2-1.9,7.8c-2.8,1.7-6,0.9-7.5-1.8c-1.6-2.7-0.7-5.8,2.1-7.4C48.3,170.9,48.5,170.8,48.6,170.7z M52.3,179.2l-4-6.7
		c-1.8,1.3-2.3,3.4-1.2,5.2C48.3,179.6,50.4,180.2,52.3,179.2z"/>
	<path class="st0" d="M49,160.7c0.7,0.3,1.3,1,1.6,1.8c0.8,1.9,0.2,3.4-1.6,4.2l-6.1,2.7l0.8,1.8l-1.2,0.5l-0.8-1.8l-2.2,1l-0.6-1.4
		l2.2-1l-1.3-3.1L41,165l1.3,3.1l6-2.6c1.2-0.5,1.6-1.4,1.1-2.6c-0.2-0.6-0.7-1-1.2-1.3L49,160.7z"/>
	<path class="st0" d="M45.3,151.2l1.2-0.4l2.7,8.5l-0.9,0.3l-10.5-4l2,6.5l-1.2,0.4l-2.6-8.3L37,154l10.5,4L45.3,151.2z"/>
	<path class="st0" d="M44.2,142.8c0.6,0.5,1,1.3,1.2,2.1c0.4,2-0.5,3.4-2.5,3.8l-6.5,1.3l0.4,1.9l-1.2,0.2l-0.4-1.9l-2.4,0.5
		l-0.3-1.5l2.4-0.5l-0.7-3.3l1.2-0.2l0.7,3.3l6.4-1.3c1.3-0.3,1.8-1.1,1.6-2.3c-0.1-0.6-0.4-1.2-0.9-1.5L44.2,142.8z"/>
	<path class="st0" d="M38.6,125.6l0.2,9.2c2.3-0.2,3.8-2,3.7-4.4c0-1.3-0.5-2.5-1.5-3.3l0.9-0.9c1.2,1,1.9,2.5,1.9,4.2
		c0.1,3.4-2.2,5.8-5.5,5.9c-3.3,0.1-5.6-2.2-5.7-5.2c-0.1-3.1,2.2-5.4,5.5-5.5C38.3,125.6,38.5,125.6,38.6,125.6z M37.8,134.9
		l-0.2-7.8c-2.2,0.2-3.6,1.8-3.6,4C34,133.2,35.6,134.7,37.8,134.9z"/>
	<path class="st0" d="M29.5,122.1c-0.6,0-1-0.6-1-1.2c0-0.6,0.5-1,1.1-1c0.6,0,1,0.5,1,1.2C30.6,121.7,30.1,122.1,29.5,122.1z
		 M33,122l0.1-1.5l11,0.9l-0.1,1.5L33,122z"/>
	<path class="st0" d="M40,106.5l6.3,1.2l-0.3,1.5l-6.1-1.2c-2.3-0.4-3.7,0.5-4.1,2.6c-0.4,2.3,0.7,4.1,3.2,4.5l5.7,1.1l-0.3,1.5
		l-10.8-2.1l0.3-1.4l2,0.4c-1.2-1-1.7-2.6-1.3-4.5C35,107.4,36.9,105.9,40,106.5z"/>
	<path class="st0" d="M38.5,95.5l1.4,0.4c0,0.1-0.1,0.2-0.1,0.3c-0.7,2.2,0.2,4,2.7,4.8l5.3,1.7l-0.5,1.4l-10.5-3.4l0.4-1.4l2.1,0.7
		C38.2,99,37.9,97.4,38.5,95.5z"/>
	<path class="st0" d="M49.2,86.1l-3.8,8.4c2.2,0.8,4.3-0.2,5.3-2.4c0.6-1.2,0.6-2.5,0.1-3.7l1.2-0.4c0.7,1.4,0.6,3-0.1,4.6
		c-1.4,3.1-4.5,4.3-7.5,2.9c-3-1.4-4.1-4.4-2.8-7.2c1.3-2.8,4.3-3.9,7.3-2.5C48.9,85.9,49.1,86,49.2,86.1z M44.4,94l3.2-7.1
		c-2-0.7-4.1,0.1-5,2C41.8,90.9,42.5,92.9,44.4,94z"/>
	<path class="st0" d="M42.6,78.9c-0.5-0.3-0.7-0.9-0.4-1.5c0.3-0.5,0.9-0.7,1.4-0.4c0.5,0.3,0.7,0.9,0.4,1.5
		C43.7,79,43.1,79.2,42.6,78.9z M45.7,80.3l0.8-1.3l9.5,5.6l-0.8,1.3L45.7,80.3z"/>
	<path class="st0" d="M52.8,79c-2.7-1.9-3.1-5.2-1.2-7.9c1.1-1.5,2.6-2.4,4.3-2.2l0,1.3c-1.3,0-2.5,0.6-3.2,1.6c-1.4,2-1,4.4,1,5.9
		c2.1,1.5,4.5,1.1,5.9-0.9c0.7-1,1-2.3,0.6-3.5l1.3-0.5c0.6,1.5,0.3,3.3-0.8,4.8C58.8,80.4,55.5,80.9,52.8,79z"/>
	<path class="st0" d="M67,60.7l4.6,4.4l-1,1.1l-4.5-4.3c-1.7-1.6-3.4-1.6-4.8-0.1c-1.6,1.7-1.6,3.8,0.2,5.5l4.2,4l-1,1.1L53.4,61.6
		l1-1.1l4.6,4.5c-0.4-1.5,0.1-3,1.4-4.4C62.4,58.7,64.7,58.5,67,60.7z"/>
	<path class="st0" d="M78.8,53l-7.3,5.6c1.5,1.7,3.9,1.9,5.8,0.4c1.1-0.8,1.7-1.9,1.8-3.2l1.3,0.3c-0.1,1.5-0.9,3-2.3,4
		c-2.7,2.1-6,1.7-8-0.9c-2-2.6-1.6-5.8,0.9-7.7s5.6-1.4,7.6,1.2C78.6,52.7,78.7,52.8,78.8,53z M70.8,57.7l6.2-4.8
		c-1.5-1.6-3.6-1.8-5.3-0.5C70,53.7,69.7,55.9,70.8,57.7z"/>
	<path class="st0" d="M89.8,45.1l3.1,5.6l-1.3,0.7l-3-5.5c-1.1-2-2.8-2.5-4.6-1.5c-2.1,1.1-2.7,3.2-1.4,5.3l2.8,5.1L84,55.6L78.7,46
		l1.2-0.7l1,1.8c0-1.6,1-3,2.6-3.9C85.9,41.9,88.3,42.3,89.8,45.1z"/>
	<path class="st0" d="M90.4,35.9l1.6-0.7l3.7,9.6l-1.1,0.4L90.4,35.9z M95.5,48.6c-0.2-0.6,0-1.2,0.6-1.4c0.6-0.2,1.2,0,1.4,0.6
		c0.2,0.5,0,1.2-0.6,1.4C96.3,49.4,95.7,49.1,95.5,48.6z"/>
</g>
<g>
	<path class="st0" d="M162.9,13.2c-0.9,4.4-5.1,7-9.8,6c-4.7-1-7.5-5-6.5-9.4c0.9-4.4,5.1-6.9,9.7-6C161,4.8,163.8,8.8,162.9,13.2z
		 M150.5,10.6c-0.5,2.5,1,4.9,3.3,5.4c2.3,0.5,4.6-1.1,5.1-3.6c0.5-2.5-0.9-4.8-3.2-5.3C153.3,6.5,151,8.1,150.5,10.6z"/>
	<path class="st0" d="M174.2,9.1c3.7,1.3,5.2,3.9,4,7.1c-1.2,3.4-4,4.6-7.8,3.3l-2.6-0.9l-1.5,4.1l-3.7-1.3l5.2-14.5L174.2,9.1z
		 M168.9,15.6l2.4,0.9c1.6,0.6,2.8,0.1,3.4-1.4c0.5-1.5-0.1-2.6-1.7-3.2l-2.4-0.9L168.9,15.6z"/>
	<path class="st0" d="M185.4,17.1l-1.4,2.7l6.5,3.3l-1.4,2.7l-6.5-3.3l-1.4,2.8l7.5,3.8l-1.4,2.7l-11-5.6l7-13.7l10.7,5.5l-1.4,2.7
		L185.4,17.1z"/>
	<path class="st0" d="M197.9,39.1l-0.4-11.8l-5.4,7.8l-3-2.1l8.8-12.6l2.8,2l0.4,11.9l5.4-7.8l3,2.1L200.7,41L197.9,39.1z"/>
	<path class="st0" d="M225,46.4l-3.5,0.3c0.2-1.6-0.3-3.2-1.3-4.2c-1.7-1.7-4.4-1.7-6.2,0.1c-1.8,1.8-1.9,4.5-0.2,6.2
		c0.9,0.9,2.5,1.5,4,1.5l-0.1,3.3c-2.4,0-4.9-0.9-6.5-2.5c-3.3-3.3-3.3-8.2-0.1-11.3c3.2-3.1,8-3,11.3,0.4
		C224.1,41.8,225.1,44.2,225,46.4z"/>
	<path class="st0" d="M220.9,57.5l-2.9,0.8l-2.4-3.2l16.3-3.9l2.4,3.2l-8.4,14.4l-2.5-3.3l1.6-2.6L220.9,57.5z M229.9,55l-5.9,1.6
		l2.7,3.6L229.9,55z"/>
	<path class="st0" d="M234.2,77.2l-2.8,1.6l-5.2-9.1l13.4-7.6l1.9,3.4l-10.5,6L234.2,77.2z"/>
	<path class="st0" d="M239.2,88.4l-3,1.3l-4.2-9.6l14.1-6.2l1.6,3.6l-11.1,4.9L239.2,88.4z"/>
	<path class="st0" d="M251.4,124.8c-4.5,0.5-8.2-2.7-8.8-7.4c-0.5-4.7,2.4-8.6,6.9-9.1c4.5-0.5,8.2,2.7,8.7,7.4
		C258.7,120.4,255.8,124.3,251.4,124.8z M249.9,112.2c-2.6,0.3-4.3,2.5-4.1,4.8c0.3,2.4,2.5,4,5,3.7c2.6-0.3,4.3-2.4,4-4.7
		C254.7,113.7,252.5,111.9,249.9,112.2z"/>
	<path class="st0" d="M258.8,134.4c-0.1,3.9-2.1,6.1-5.5,6c-3.6-0.1-5.6-2.4-5.5-6.4l0.1-2.8l-4.3-0.1l0.1-3.9l15.4,0.4L258.8,134.4
		z M250.9,131.3l-0.1,2.6c0,1.7,0.8,2.7,2.4,2.8c1.6,0,2.4-0.9,2.5-2.6l0.1-2.6L250.9,131.3z"/>
	<path class="st0" d="M254.6,147.5l-3-0.5l-1.1,7.3l-3-0.5l1.1-7.3l-3.1-0.5l-1.3,8.3l-3-0.5l1.9-12.1l15.2,2.4l-1.9,11.9l-3-0.5
		L254.6,147.5z"/>
	<path class="st0" d="M237.6,166.1l11.1-4.1l-9.1-2.7l1.1-3.5l14.8,4.4l-1,3.3l-11.1,4.1l9.1,2.7l-1,3.5l-14.8-4.4L237.6,166.1z"/>
	<path class="st0" d="M239.1,194.2l-1.4-3.2c1.6-0.3,2.9-1.3,3.5-2.5c1.1-2.2,0.2-4.7-2-5.9c-2.3-1.2-4.9-0.4-6,1.8
		c-0.6,1.2-0.6,2.8-0.2,4.3l-3.2,0.9c-0.8-2.2-0.6-4.9,0.4-6.9c2.1-4.1,6.7-5.7,10.7-3.6c4,2,5.3,6.7,3.2,10.9
		C243.2,191.9,241.2,193.6,239.1,194.2z"/>
	<path class="st0" d="M227.3,193.8l-1.7-2.5l2.3-3.3l8.8,14.3l-2.3,3.3l-16.3-3.5l2.4-3.4l3,0.7L227.3,193.8z M232.5,201.5l-3.4-5.1
		l-2.5,3.6L232.5,201.5z"/>
	<path class="st0" d="M212.7,212.6l-2.4-2.2l7-7.8l11.4,10.3l-2.6,2.9l-9-8.1L212.7,212.6z"/>
	<path class="st0" d="M203.6,220.8l-2.2-2.4l7.8-7l10.3,11.5l-2.9,2.6l-8.1-9L203.6,220.8z"/>
	<path class="st0" d="M172.8,243.7c-1.9-4.1,0-8.7,4.3-10.7c4.3-2,9-0.4,10.8,3.7c1.9,4.1,0,8.6-4.3,10.6
		C179.3,249.3,174.7,247.7,172.8,243.7z M184.3,238.4c-1.1-2.4-3.7-3.3-5.9-2.4c-2.2,1-3,3.6-2,6c1.1,2.4,3.6,3.4,5.8,2.4
		S185.4,240.7,184.3,238.4z"/>
	<path class="st0" d="M166.1,253.7c-3.8,1.1-6.5-0.1-7.5-3.4c-1-3.5,0.5-6.1,4.3-7.2l2.7-0.8l-1.2-4.2l3.8-1.1l4.4,14.8L166.1,253.7
		z M166.5,245.3L164,246c-1.6,0.5-2.3,1.6-1.9,3.2c0.5,1.5,1.6,2,3.3,1.5l2.5-0.7L166.5,245.3z"/>
	<path class="st0" d="M152.3,253.8l-0.5-3l-7.3,1.2l-0.5-3l7.2-1.2l-0.5-3.1l-8.3,1.4l-0.5-3l12.1-2l2.5,15.2l-11.9,2l-0.5-3
		L152.3,253.8z"/>
	<path class="st0" d="M129.3,243.5l7.3,9.3l-0.2-9.5l3.7-0.1l0.4,15.4l-3.5,0.1l-7.3-9.3l0.2,9.5l-3.7,0.1l-0.4-15.4L129.3,243.5z"
		/>
	<path class="st0" d="M103,253.7l2.7-2.3c0.8,1.4,2.2,2.4,3.5,2.6c2.4,0.4,4.5-1.2,4.9-3.7c0.4-2.5-1.1-4.8-3.5-5.2
		c-1.3-0.2-2.9,0.3-4.1,1.2l-1.9-2.8c1.9-1.4,4.5-2.1,6.7-1.8c4.6,0.7,7.5,4.6,6.7,9.1c-0.7,4.4-4.7,7.1-9.4,6.4
		C106.5,256.8,104.3,255.5,103,253.7z"/>
	<path class="st0" d="M99.8,242.3l1.9-2.4l3.9,1.2l-10.8,12.8l-3.9-1.2l-1.8-16.6l4,1.2l0.2,3L99.8,242.3z M94,249.6l3.8-4.8
		l-4.3-1.3L94,249.6z"/>
	<path class="st0" d="M77.4,234.3l1.3-3l9.6,4.2L82,249.6l-3.6-1.6l4.9-11.1L77.4,234.3z"/>
	<path class="st0" d="M66.7,228.2l1.6-2.8l9.1,5.2L69.7,244l-3.4-2l6.1-10.5L66.7,228.2z"/>
	<path class="st0" d="M35.4,206.1c3.3-3,8.2-2.7,11.5,0.8c3.2,3.5,3.1,8.4-0.2,11.5c-3.3,3-8.2,2.7-11.4-0.8
		C32.1,214,32.1,209.1,35.4,206.1z M44,215.4c1.9-1.8,2-4.6,0.4-6.3c-1.6-1.7-4.4-1.8-6.3,0c-1.9,1.8-2.1,4.5-0.5,6.2
		C39.3,217,42.1,217.1,44,215.4z"/>
	<path class="st0" d="M23.8,202.8c-2.2-3.2-1.9-6.2,0.9-8.2c3-2.1,6-1.4,8.2,1.9l1.6,2.3l3.6-2.5l2.2,3.2l-12.7,8.8L23.8,202.8z
		 M31.9,200.5l-1.5-2.1c-1-1.4-2.2-1.7-3.6-0.8c-1.3,0.9-1.4,2.2-0.4,3.6l1.5,2.1L31.9,200.5z"/>
	<path class="st0" d="M19.4,189.8l2.7-1.4l-3.4-6.5l2.7-1.4l3.4,6.5l2.8-1.4l-3.9-7.4l2.7-1.4l5.7,10.9l-13.7,7.1L12.9,184l2.7-1.4
		L19.4,189.8z"/>
	<path class="st0" d="M22,164.6l-6.5,9.9l8.9-3.2l1.2,3.5L11.1,180l-1.2-3.3l6.6-9.9l-9,3.2l-1.2-3.4l14.5-5.2L22,164.6z"/>
	<path class="st0" d="M4.1,142.9l3,1.8c-1.1,1.2-1.6,2.8-1.4,4.1c0.4,2.4,2.6,3.9,5.1,3.5c2.5-0.4,4.2-2.5,3.8-5
		c-0.2-1.3-1.1-2.6-2.4-3.5l2-2.6c1.9,1.4,3.4,3.6,3.8,5.8c0.7,4.6-2.1,8.5-6.5,9.3c-4.4,0.7-8.3-2.2-9-6.9
		C2.2,147.2,2.8,144.7,4.1,142.9z"/>
	<path class="st0" d="M13.9,136.3l2.9,1.1l0.1,4l-15.6-6.3l-0.1-4l15.2-6.9l0.1,4.2l-2.8,1.2L13.9,136.3z M5.2,133.1l5.7,2.1
		l-0.1-4.4L5.2,133.1z"/>
	<path class="st0" d="M14.6,112.5l3.3,0.3l-1.1,10.4l-15.3-1.6l0.4-3.9l12.1,1.2L14.6,112.5z"/>
	<path class="st0" d="M17,100.5l3.2,0.7l-2.1,10.2L3,108.2l0.8-3.8l11.9,2.5L17,100.5z"/>
	<path class="st0" d="M28.3,63.8c3.9,2.2,5.2,7,2.8,11.1c-2.3,4.2-7,5.6-10.9,3.4c-3.9-2.2-5.1-6.9-2.8-11.1
		C19.7,63.1,24.4,61.7,28.3,63.8z M22.1,74.9c2.3,1.3,5,0.5,6.1-1.6c1.2-2.1,0.3-4.7-1.9-6s-4.9-0.6-6.1,1.5
		C19.1,70.9,19.9,73.6,22.1,74.9z"/>
	<path class="st0" d="M27.8,51.7c2.4-3.1,5.3-3.8,8-1.7c2.9,2.2,3.2,5.2,0.8,8.4l-1.7,2.2l3.5,2.6L36,66.4l-12.3-9.3L27.8,51.7z
		 M32.5,58.8l1.6-2.1c1-1.4,0.9-2.7-0.3-3.7c-1.3-1-2.5-0.7-3.6,0.7l-1.6,2.1L32.5,58.8z"/>
	<path class="st0" d="M38.8,43.5l2.2,2.1l5.1-5.2l2.2,2.2l-5.1,5.2l2.2,2.2l5.9-6l2.2,2.2l-8.6,8.8l-11-10.8l8.4-8.6l2.2,2.2
		L38.8,43.5z"/>
	<path class="st0" d="M63.5,38.2L52.1,35l5.8,7.5L55,44.7l-9.4-12.2l2.7-2.1l11.4,3.2l-5.8-7.5l2.9-2.2l9.4,12.2L63.5,38.2z"/>
	<path class="st0" d="M78.6,14.4l-0.8,3.4c-1.5-0.6-3.1-0.6-4.4,0c-2.2,1.1-2.9,3.7-1.8,5.9c1.2,2.3,3.7,3.2,5.9,2.1
		c1.2-0.6,2.2-1.9,2.6-3.4l3.1,1.1C82.7,25.8,81,28,79,29c-4.1,2.1-8.8,0.7-10.8-3.3c-2-3.9-0.4-8.5,3.7-10.7
		C73.9,13.9,76.5,13.7,78.6,14.4z"/>
	<path class="st0" d="M88,21.6l-0.1,3.1L84.1,26l1.1-16.7L88.9,8l11.3,12.3l-3.9,1.4l-2-2.3L88,21.6z M88.2,12.3L88,18.5l4.2-1.5
		L88.2,12.3z"/>
	<path class="st0" d="M110.7,14.8l0.7,3.2l-10.2,2.2l-3.3-15l3.8-0.8l2.6,11.8L110.7,14.8z"/>
	<path class="st0" d="M122.9,13.4l0.4,3.3l-10.4,1.2l-1.7-15.3l3.9-0.4l1.3,12L122.9,13.4z"/>
</g>
</svg>
