<?xml version="1.0" encoding="utf-8"?>
<!-- Generator: Adobe Illustrator 25.0.1, SVG Export Plug-In . SVG Version: 6.00 Build 0)  -->
<svg version="1.1" id="Ebene_1" xmlns="http://www.w3.org/2000/svg" xmlns:xlink="http://www.w3.org/1999/xlink" x="0px"
    y="0px" viewBox="0 0 566.9 566.9" style="enable-background:new 0 0 566.9 566.9;" xml:space="preserve">
    <style type="text/css">
        .st0 {
            enable-background: new;
        }

        .st1 {
            fill: #E94850;
        }

        .st2 {
            fill: #E41915;
        }
    </style>
    <g id="Ebene_1_1_">
        <g class="st0">
            <path class="st1" d="M280.7,31.4l-13.9-17.2l0.7,17.7l-6.8,0.3l-1.1-28.7l6.4-0.2l13.9,17.2l-0.7-17.7l6.8-0.3l1.1,28.7
			L280.7,31.4z" />
        </g>
        <g class="st0">
            <path class="st1" d="M301.1,9.1l-0.4,5.7l13.7,1l-0.4,5.7l-13.7-1l-0.4,5.8l15.6,1.2l-0.4,5.7L292,31.4l2.2-28.6l22.4,1.7
			l-0.4,5.7L301.1,9.1z" />
        </g>
        <g class="st0">
            <path class="st1" d="M342.9,38.5l-1-20.5l-9.5,18.2l-7.4-1.6l-3-30l7.6,1.7l1,21.8l9.9-19.5l7,1.5l1,21.8l9.9-19.4l7.3,1.6
			l-15.4,26L342.9,38.5z" />
        </g>
        <g class="st0">
            <path class="st1" d="M367.6,42.6c-0.6,1.9-2.5,2.8-4.4,2.2c-1.9-0.6-2.8-2.4-2.1-4.3c0.6-1.9,2.4-2.8,4.3-2.2
			C367.3,38.9,368.3,40.7,367.6,42.6z M368.6,35.8l-4-1.4l2.4-11.2l2.3-6.9l6.4,2.1l-2.3,6.9L368.6,35.8z" />
        </g>
        <g class="st0">
            <path class="st1" d="M410.3,52.7l4.9,2.5l-2.7,4.1l-5-2.5l-3.6,5.3l-4.5-2.3l3.6-5.3l-5.1-2.6l-3.6,5.3l-4.5-2.3l3.6-5.3l-4.9-2.5
			l2.7-4.1l5,2.5l3.3-4.9l-4.9-2.5l2.7-4.1l4.9,2.5l3.8-5.6l4.5,2.3l-3.8,5.6l5.1,2.6l3.8-5.6l4.5,2.3l-3.8,5.6l4.9,2.5l-2.7,4.1
			l-5-2.6L410.3,52.7z M404,42.9l-3.3,4.9l5.1,2.6l3.3-4.9L404,42.9z" />
        </g>
        <g class="st0">
            <path class="st1"
                d="M444.6,89.8l0.7-22l-11,13.8l-5.3-4.2L446.8,55l5,4l-0.7,22l11-13.8l5.3,4.2l-17.8,22.4L444.6,89.8z" />
        </g>
        <g class="st0">
            <path class="st1" d="M474.8,86.1l-4,4l9.7,9.7l-4.1,4.1l-9.7-9.7l-4.1,4.1l11.1,11l-4.1,4.1l-16.2-16.2l20.3-20.3l15.9,15.9
			l-4.1,4.1L474.8,86.1z" />
        </g>
        <g class="st0">
            <path class="st1" d="M487.4,135.7l12.7-16.2l-19.1,7.6l-4.5-6l17.3-24.7l4.7,6.2l-13.5,17.2l20.2-8.3l4.3,5.7l-13.5,17.2l20.2-8.2
			l4.5,6l-28.6,9.6L487.4,135.7z" />
        </g>
        <g class="st0">
            <path class="st1" d="M531.4,157.8l-6.3,0.4c0-3.5-0.8-7.4-1.9-9.5c-0.9-1.6-2.2-2.4-3.4-1.7c-4.3,2.4,5.6,14.2-3.4,19.3
			c-5,2.8-10.1-0.1-13.3-5.7c-2.4-4.2-3.2-9.3-2.4-13.7l6.3-0.3c-0.8,3.8-0.1,8.5,1.3,11.1c1.1,2,2.6,2.8,4,2
			c4.4-2.5-5.7-14.2,3.2-19.2c4.6-2.6,9.8-0.3,13.1,5.7C530.7,150,531.6,154.3,531.4,157.8z" />
        </g>
        <g class="st0">
            <path class="st1" d="M523.8,189l-5.6,2.5l-7.9-17.8l26.2-11.6l3,6.7l-20.7,9.1L523.8,189z" />
        </g>
        <g class="st0">
            <path class="st1" d="M543.3,193.8l-5.4,1.8l4.3,13l-5.5,1.8l-4.3-13l-5.5,1.8l4.9,14.8l-5.5,1.8l-7.2-21.8l27.3-9l7,21.3l-5.5,1.8
			L543.3,193.8z" />
        </g>
        <g class="st0">
            <path class="st1"
                d="M552.5,227.8l-22.3,4.9l-1.6-7.1l22.3-4.9l-1.8-8.4l5.8-1.3l5.2,24l-5.8,1.3L552.5,227.8z" />
        </g>
        <g class="st0">
            <path class="st1"
                d="M556.6,254.1l-22.7,2.7l-0.9-7.2l22.7-2.7l-1-8.5l5.9-0.7l2.9,24.3l-5.9,0.7L556.6,254.1z" />
        </g>
        <g class="st0">
            <path class="st1" d="M558.1,274.7l-5.7,0.1l0.2,13.7l-5.7,0.1l-0.2-13.7l-5.8,0.1l0.3,15.6l-5.7,0.1l-0.4-22.9l28.7-0.5l0.4,22.5
			l-5.7,0.1L558.1,274.7z" />
        </g>
        <g class="st0">
            <path class="st1" d="M542.2,308.5l0-0.2l0.5-5.5l-8.1-0.7l0.7-7.3l28.7,2.6l-1.2,12.8c-0.7,7.6-4.7,11.6-11.1,11
			c-4.4-0.4-7.4-2.5-8.8-6l-10,5.2l0.7-8.3L542.2,308.5z M547.9,308.8c-0.3,3.2,1.1,5.1,4.2,5.4c3,0.3,4.7-1.4,5-4.6l0.5-5.5
			l-9.1-0.8L547.9,308.8z" />
        </g>
        <g class="st0">
            <path class="st1" d="M534.1,363.7l-1.5,5.3l-4.5-1.9l1.5-5.4l-5.9-2.5l1.4-4.9l5.9,2.5l1.6-5.5l-5.9-2.5l1.4-4.9l5.9,2.5l1.5-5.3
			l4.5,1.9l-1.5,5.4l5.4,2.3l1.5-5.2l4.5,1.9l-1.5,5.3l6.2,2.6l-1.4,4.9l-6.2-2.6l-1.6,5.5l6.2,2.6l-1.4,4.9l-6.2-2.6l-1.5,5.3
			l-4.5-1.9l1.6-5.4L534.1,363.7z M542.5,355.7l-5.4-2.3l-1.6,5.5l5.4,2.3L542.5,355.7z" />
        </g>
        <g class="st0">
            <path class="st1" d="M504.2,404.7L526,401l-15.7-8.1l3.1-6.1l25.5,13.2l-3,5.7l-21.8,3.6l15.7,8.1l-3.1,6l-25.5-13.2L504.2,404.7z
			" />
        </g>
        <g class="st0">
            <path class="st1" d="M513.6,433.5l-4.7-3.2l-7.7,11.4l-4.8-3.2l7.7-11.4l-4.8-3.2l-8.7,13l-4.8-3.2l12.8-19l23.8,16.1l-12.6,18.6
			l-4.8-3.2L513.6,433.5z" />
        </g>
        <g class="st0">
            <path class="st1" d="M467.3,455.2l18.3,9.4l-11.1-17.3l5.1-5.6l27.5,12.3l-5.2,5.8l-19.4-10l11.9,18.2l-4.8,5.3l-19.4-10
			l11.9,18.2l-5,5.5l-14.9-26.2L467.3,455.2z" />
        </g>
        <g class="st0">
            <path class="st1" d="M451.7,474.9c-1.4-1.5-1.2-3.5,0.2-4.9c1.5-1.3,3.5-1.2,4.8,0.3c1.3,1.5,1.2,3.5-0.2,4.8
			C455,476.4,453,476.3,451.7,474.9z M457.1,479l3.2-2.9l8.5,7.6l4.9,5.4l-5,4.5l-4.9-5.4L457.1,479z" />
        </g>
        <g class="st0">
            <path class="st1" d="M422,507.1l-4.6,3l-2.2-4.4l4.6-3.1l-2.9-5.7l4.2-2.8l2.9,5.7l4.7-3.1l-2.9-5.7l4.2-2.8l2.9,5.7l4.6-3
			l2.2,4.4l-4.6,3.1l2.6,5.2l4.5-3l2.2,4.3l-4.6,3l3,6l-4.2,2.8l-3-6l-4.8,3.2l3,6l-4.2,2.8l-3-6l-4.6,3l-2.2-4.3l4.7-3.1L422,507.1
			z M433.6,506.4l-2.6-5.3l-4.7,3.1l2.6,5.3L433.6,506.4z" />
        </g>
        <g class="st0">
            <path class="st1" d="M372.7,518.9l18.9,11.3l-6.7-16.3l6.3-2.6l10.9,26.6l-6,2.4l-19-11.4l6.7,16.4l-6.3,2.6l-10.9-26.6
			L372.7,518.9z" />
        </g>
        <g class="st0">
            <path class="st1" d="M361.1,547l-1.5-5.5l-13.2,3.7l-1.5-5.5l13.2-3.7l-1.6-5.6l-15,4.2l-1.5-5.5l22.1-6.2l7.7,27.6l-21.6,6.1
			l-1.5-5.5L361.1,547z" />
        </g>
        <g class="st0">
            <path class="st1" d="M311.8,533.5l7.9,19l2.8-20.3l7.5-1l13,27.2l-7.7,1l-8.3-20.2l-2.7,21.6l-7.1,0.9l-8.3-20.2l-2.7,21.6l-7.4,1
			l5.6-29.6L311.8,533.5z" />
        </g>
        <g class="st0">
            <path class="st1" d="M270.5,560.7l2.8-5.7c3,1.8,6.8,3.1,9.1,3.1c1.9,0,3.2-0.6,3.2-2c0.1-5-15.1-2.4-15-12.7
			c0.1-5.7,5.2-8.7,11.6-8.6c4.8,0.1,9.7,2,13,4.8l-2.9,5.6c-2.9-2.6-7.3-4.4-10.3-4.5c-2.3,0-3.7,0.8-3.8,2.4
			c-0.1,5.1,15.1,2.3,15,12.5c-0.1,5.3-4.7,8.6-11.6,8.5C277.7,564.1,273.5,562.7,270.5,560.7z" />
        </g>
        <g class="st0">
            <path class="st1" d="M247.5,539l0.6-6.1l19.4,1.9l-2.8,28.6l-7.3-0.7l2.2-22.5L247.5,539z" />
        </g>
        <g class="st0">
            <path class="st1" d="M233.8,553.6l1.1-5.6l-13.4-2.6l1.1-5.6l13.4,2.6l1.1-5.7l-15.3-3l1.1-5.6l22.5,4.4l-5.5,28.1l-22-4.3
			l1.1-5.6L233.8,553.6z" />
        </g>
        <g class="st0">
            <path class="st1"
                d="M199.6,544.9l6.7-21.8l7,2.1l-6.7,21.8l8.2,2.5l-1.7,5.6l-23.4-7.2l1.7-5.6L199.6,544.9z" />
        </g>
        <g class="st0">
            <path class="st1"
                d="M174.7,535.6l8.8-21.1l6.7,2.8l-8.8,21.1l7.9,3.3l-2.3,5.5l-22.6-9.4l2.3-5.5L174.7,535.6z" />
        </g>
        <g class="st0">
            <path class="st1" d="M155.8,526.8l2.7-5l-12-6.6l2.8-5l12,6.6l2.8-5.1l-13.7-7.5l2.8-5l20.2,11l-13.8,25.3l-19.8-10.8l2.8-5
			L155.8,526.8z" />
        </g>
        <g class="st0">
            <path class="st1" d="M134.5,496.3l0.2,0.1l4.5,3.2l4.6-6.6l6,4.2l-16.4,23.5l-10.5-7.3c-6.2-4.3-7.7-9.8-4.1-15
			c2.5-3.6,5.8-5.1,9.5-4.6l0.5-11.2l6.8,4.7L134.5,496.3z M131.4,501.1c-2.6-1.8-5-1.5-6.7,0.9c-1.7,2.5-1.1,4.7,1.5,6.5l4.5,3.2
			l5.2-7.5L131.4,501.1z" />
        </g>
        <g class="st0">
            <path class="st1" d="M90.3,462.2l-3.9-3.9l3.9-3l3.9,4l5.1-3.9l3.6,3.6l-5.1,3.9l4,4l5.1-3.9l3.6,3.6l-5.1,3.9l3.9,3.9l-3.9,3
			l-3.9-4l-4.7,3.6l3.8,3.9l-3.8,3l-3.9-3.9l-5.3,4.1l-3.6-3.6l5.3-4.1l-4-4.1l-5.3,4.1l-3.6-3.6l5.3-4.1l-3.9-3.9l3.8-3l3.9,4
			L90.3,462.2z M93.2,473.4l4.7-3.6l-4-4l-4.7,3.6L93.2,473.4z" />
        </g>
        <g class="st0">
            <path class="st1"
                d="M69.2,415.9l-7.5,20.7l14.8-9.7l3.8,5.7l-24,15.8l-3.5-5.4l7.5-20.8L45.5,432l-3.7-5.7l24-15.8L69.2,415.9z" />
        </g>
        <g class="st0">
            <path class="st1" d="M39.6,410l5.1-2.6l-6.2-12.2l5.1-2.6l6.2,12.2l5.1-2.6l-7-13.9l5.1-2.6l10.3,20.4l-25.5,12.9l-10.1-20
			l5.1-2.6L39.6,410z" />
        </g>
        <g class="st0">
            <path class="st1" d="M43.1,359l-17.1,11.4l20.5-1.2l2.4,7.1l-24.2,18.1l-2.5-7.4L40.5,375l-21.8,1.6l-2.3-6.8l18.2-12.1l-21.8,1.5
			l-2.4-7.1l30.2-0.2L43.1,359z" />
        </g>
        <g class="st0">
            <path class="st1" d="M27.5,338.3l0.9,4.2l-10.9,3.7l-7.2,1.6l-1.5-6.6l7.2-1.6L27.5,338.3z M33.9,335.7c2-0.5,3.7,0.6,4.1,2.6
			c0.4,1.9-0.6,3.6-2.6,4.1c-2,0.4-3.7-0.7-4.1-2.6C30.8,337.8,31.9,336.1,33.9,335.7z" />
        </g>
        <g class="st0">
            <path class="st1" d="M20.5,293.9l-0.4-5.5l4.9,0.2l0.4,5.6l6.4,0.3l0.3,5.1l-6.4-0.3l0.4,5.7l6.4,0.3l0.3,5.1l-6.4-0.3l0.4,5.5
			l-4.9-0.2l-0.4-5.6l-5.9-0.3l0.4,5.4l-4.9-0.2l-0.4-5.5L4,308.8l-0.3-5.1l6.7,0.4l-0.4-5.7L3.3,298L2.9,293l6.7,0.4l-0.4-5.5
			l4.9,0.2l0.4,5.6L20.5,293.9z M15.3,304.4l5.9,0.3l-0.4-5.7l-5.9-0.3L15.3,304.4z" />
        </g>
        <g class="st0">
            <path class="st1" d="M34.4,245.2l-19.2,10.9l17.5,2.2l-0.8,6.8l-28.5-3.5l0.8-6.4l19.2-11l-17.6-2.2l0.8-6.8l28.5,3.5L34.4,245.2z
			" />
        </g>
        <g class="st0">
            <path class="st1" d="M15.6,221.5l5.5,1.4l3.2-13.3l5.6,1.4l-3.2,13.3l5.6,1.4l3.7-15.2l5.6,1.4L36.2,234l-27.9-6.8l5.3-21.8
			l5.6,1.4L15.6,221.5z" />
        </g>
        <g class="st0">
            <path class="st1" d="M51.5,185l-20.4-2.4L47.5,195l-2.8,7l-30.1-1.9l2.9-7.2l21.7,2.6l-17.6-12.9l2.6-6.6l21.7,2.6l-17.6-13
			l2.8-6.9L54.3,178L51.5,185z" />
        </g>
        <g class="st0">
            <path class="st1" d="M47.7,135.9l3.6,5.2c-3,1.8-6,4.5-7.1,6.5c-0.9,1.6-0.9,3.1,0.3,3.8c4.3,2.4,9.3-12.2,18.3-7.1
			c5,2.8,5.1,8.7,2,14.3c-2.4,4.2-6.3,7.6-10.4,9.2l-3.5-5.2c3.7-1.3,7.4-4.3,8.8-6.9c1.1-2,1.1-3.7-0.3-4.5
			c-4.4-2.5-9.2,12.2-18.1,7.2c-4.6-2.6-5.3-8.2-1.9-14.2C41.4,140.6,44.6,137.6,47.7,135.9z" />
        </g>
        <g class="st0">
            <path class="st1" d="M78.3,126.4l5,3.5l-11.1,16l-23.5-16.4l4.2-6l18.5,12.9L78.3,126.4z" />
        </g>
        <g class="st0">
            <path class="st1" d="M72.5,107.2l4.3,3.7l8.9-10.4l4.4,3.7l-8.9,10.4l4.4,3.8l10.2-11.9l4.4,3.7l-14.9,17.4L63.4,109l14.6-17
			l4.4,3.7L72.5,107.2z" />
        </g>
        <g class="st0">
            <path class="st1"
                d="M96.9,81.7l15.7,16.6l-5.3,5L91.6,86.8l-6.2,5.9l-4.1-4.3l17.8-16.9l4.1,4.3L96.9,81.7z" />
        </g>
        <g class="st0">
            <path class="st1"
                d="M117.2,64.5l14.2,18l-5.8,4.5l-14.2-18l-6.8,5.3l-3.7-4.7l19.4-15.2l3.7,4.7L117.2,64.5z" />
        </g>
        <g class="st0">
            <path class="st1" d="M134.1,52.6l3,4.8l11.6-7.3l3,4.9l-11.6,7.3l3.1,4.9l13.3-8.3l3,4.9L140.1,76l-15.2-24.4L144,39.7l3,4.9
			L134.1,52.6z" />
        </g>
        <g class="st0">
            <path class="st1" d="M171.2,48.9L171,49l-5,2.4l3.5,7.3l-6.6,3.2L150.4,36l11.5-5.6c6.8-3.3,12.3-2,15.1,3.8
			c1.9,3.9,1.6,7.6-0.7,10.6l9.6,5.9l-7.5,3.6L171.2,48.9z M168.5,43.8c2.8-1.4,3.8-3.6,2.5-6.4c-1.3-2.7-3.6-3.3-6.5-1.9l-5,2.4
			l4,8.2L168.5,43.8z" />
        </g>
        <g class="st0">
            <path class="st1" d="M222.7,27.2l5.3-1.4l0.7,4.9l-5.4,1.4l0.9,6.4l-4.9,1.3l-0.9-6.4l-5.5,1.5l0.9,6.4l-4.9,1.3l-0.9-6.4
			l-5.3,1.4l-0.7-4.9l5.4-1.4l-0.8-5.8l-5.3,1.4l-0.7-4.9l5.3-1.4l-0.9-6.7l4.9-1.3l0.9,6.7l5.5-1.5l-0.9-6.7l4.9-1.3l0.9,6.7
			l5.3-1.4l0.7,4.9l-5.4,1.5L222.7,27.2z M211.4,24.1l0.8,5.9l5.5-1.5l-0.8-5.9L211.4,24.1z" />
        </g>
        <g class="st0">
            <path class="st2" d="M140.2,149.2l-0.2-2.7c2.7,0.5,5,0,6.7-1.8c2.4-2.4,2.3-5.1-0.6-8l-11.9-12.1l-7.3,7.2l-1.8-1.8l9.4-9.2
			l13.6,13.8c4.2,4.2,4.2,8.3,0.4,12C146.3,148.8,143.2,149.8,140.2,149.2z" />
        </g>
        <g class="st0">
            <path class="st2" d="M169.1,115.8l-13.9,10.9c3,3.3,7.4,3.5,11.1,0.6c2-1.6,3.3-3.7,3.4-6.2l2.4,0.5c-0.1,2.9-1.7,5.7-4.3,7.8
			c-5.2,4.1-11.5,3.3-15.4-1.6c-3.9-4.9-3.2-11.1,1.5-14.8c4.7-3.7,10.8-2.9,14.7,2.1C168.8,115.3,168.9,115.6,169.1,115.8z
			 M153.9,125.1l11.8-9.3c-2.8-3-7-3.4-10.3-0.9C152.2,117.5,151.7,121.6,153.9,125.1z" />
        </g>
        <g class="st0">
            <path class="st2" d="M189,113.3c-0.4,1.4-1.6,2.7-3,3.6c-3.4,2.1-6.4,1.4-8.5-1.9l-6.7-10.8l-3.2,2l-1.3-2l3.2-2l-2.4-3.9l2.4-1.5
			l2.4,3.9l5.4-3.4l1.3,2l-5.4,3.4l6.7,10.7c1.3,2.1,3.1,2.6,5.1,1.3c1-0.6,1.8-1.5,2.1-2.6L189,113.3z" />
        </g>
        <g class="st0">
            <path class="st2"
                d="M206.8,103.1l1,2.1l-15.4,7.5l-0.8-1.7l4.5-20.9l-11.7,5.7l-1.1-2.2l15-7.3l0.8,1.7l-4.5,20.9L206.8,103.1z" />
        </g>
        <g class="st0">
            <path class="st2" d="M223.3,97.9c-0.7,1.3-2.1,2.4-3.7,2.9c-3.7,1.4-6.6,0.1-7.9-3.6l-4.5-12l-3.5,1.3l-0.8-2.3l3.5-1.3l-1.6-4.3
			l2.7-1l1.6,4.3l6-2.2l0.8,2.3l-6,2.2l4.4,11.8c0.9,2.3,2.5,3.2,4.8,2.3c1.1-0.4,2.1-1.2,2.6-2.1L223.3,97.9z" />
        </g>
        <g class="st0">
            <path class="st2" d="M252.6,78.5l2.6,12.8l-2.7,0.5l-0.6-3.2c-0.8,2.4-3,4.2-6.4,4.8c-4.7,0.9-8-0.9-8.7-4.5
			c-0.6-3.2,0.9-6.3,6.8-7.4l6.5-1.3l-0.3-1.3c-0.7-3.5-3.1-5-6.9-4.3c-2.7,0.5-5,2-6.4,3.8l-1.7-1.8c1.7-2.2,4.6-3.8,7.8-4.5
			C247.9,71.1,251.5,73.1,252.6,78.5z M251.1,85.6l-0.7-3.4l-6.5,1.3c-4,0.8-5,2.6-4.5,4.8c0.5,2.4,2.7,3.5,6,2.8
			C248.5,90.5,250.6,88.5,251.1,85.6z" />
        </g>
        <g class="st0">
            <path class="st2" d="M281.4,76.5l0.9,12.2l-2.8,0.2L278.6,77c-0.3-4.4-2.8-6.6-6.8-6.3c-4.5,0.3-7.2,3.3-6.8,8.1l0.8,11l-2.8,0.2
			l-1.5-21l2.7-0.2l0.3,3.9c1.3-2.7,4.1-4.3,7.7-4.6C277.3,67.8,281,70.5,281.4,76.5z" />
        </g>
        <g class="st0">
            <path class="st2" d="M325.7,80l-1.4,12.1l-2.8-0.3l1.3-11.8c0.5-4.4-1.5-6.9-5.3-7.3c-4.3-0.5-7.3,2-7.8,6.8l-1.2,11l-2.8-0.3
			l1.3-11.8c0.5-4.4-1.5-6.9-5.3-7.4c-4.3-0.5-7.3,2-7.8,6.8l-1.2,11l-2.8-0.3l2.3-20.9l2.7,0.3l-0.4,3.8c1.8-2.3,4.6-3.5,8.1-3.1
			c3.5,0.4,6,2.2,6.9,5.2c1.8-2.5,5-3.9,8.8-3.5C323.3,70.7,326.3,74,325.7,80z" />
        </g>
        <g class="st0">
            <path class="st2" d="M352,90.3l-16.9-4.9c-0.9,4.3,1.5,8.1,5.9,9.3c2.5,0.7,4.9,0.5,7-0.8l1,2.2c-2.4,1.6-5.6,2-8.8,1
			c-6.3-1.8-9.3-7.4-7.6-13.4c1.7-6,7.2-9,12.9-7.4c5.7,1.7,8.6,7,6.8,13.1C352.2,89.7,352.1,90,352,90.3z M335.7,83.4l14.3,4.2
			c0.8-4.1-1.3-7.7-5.2-8.8C340.9,77.6,337.2,79.5,335.7,83.4z" />
        </g>
        <g class="st0">
            <path class="st2" d="M366,74.4l2.6,1.1l-11,27.6L355,102L366,74.4z" />
        </g>
        <g class="st0">
            <path class="st2" d="M396,88.5l-13.6,26.4l-2.4-1.2l1.9-3.7c-2.8,1.7-6.1,1.7-9.2,0.2c-5.3-2.8-7.3-8.7-4.4-14.3
			c2.9-5.7,8.9-7.4,14.2-4.7c3,1.5,4.9,4.1,5.2,7.4l5.8-11.2L396,88.5z M384.8,104.2c2.3-4.4,0.8-8.8-3.2-10.9
			c-4-2.1-8.5-0.7-10.7,3.7c-2.3,4.4-0.8,8.8,3.2,10.9C378,110,382.5,108.6,384.8,104.2z" />
        </g>
        <g class="st0">
            <path class="st2" d="M409.8,121.6l-14.4-10c-2.2,3.8-1.2,8.1,2.6,10.7c2.1,1.5,4.5,2,6.9,1.4l0.3,2.4c-2.8,0.8-5.9,0.1-8.6-1.8
			c-5.4-3.7-6.5-10-2.9-15.1c3.6-5.1,9.7-6.3,14.5-2.9c4.9,3.4,5.9,9.4,2.3,14.6C410.2,121.1,409.9,121.3,409.8,121.6z M396.5,109.8
			l12.2,8.5c2.1-3.6,1.2-7.7-2.1-10C403.3,106,399.2,106.7,396.5,109.8z" />
        </g>
        <g class="st0">
            <path class="st2" d="M431.5,137.5l-8.3,9l-2.1-1.9l8.1-8.8c3-3.3,2.9-6.6-0.1-9.3c-3.3-3.1-7.4-2.9-10.6,0.6l-7.5,8.2l-2.1-1.9
			l14.3-15.6l2,1.9l-2.6,2.9c2.9-0.9,6,0,8.7,2.5C435,128.4,435.6,133,431.5,137.5z" />
        </g>
        <g class="st0">
            <path class="st2" d="M463.8,163.5l-17,12.4l-1.6-2.2l3.1-2.3c-2.9,0.3-5.7-1-7.7-3.7c-3.2-4.3-2.8-8.9,2.1-12.5l9.9-7.2l1.7,2.3
			l-9.6,7c-3.6,2.6-4.1,5.9-1.7,9.1c2.6,3.6,6.5,4.1,10.4,1.3l8.9-6.5L463.8,163.5z" />
        </g>
        <g class="st0">
            <path class="st2" d="M470.9,194.1l-10.8,5.7l-1.3-2.5l10.5-5.6c3.9-2.1,4.8-5.2,3-8.7c-2.1-4-5.9-5.2-10.2-2.9l-9.7,5.2l-1.3-2.5
			l18.6-9.9l1.3,2.4l-3.4,1.8c3,0.1,5.6,1.9,7.3,5.2C477.2,186.7,476.3,191.2,470.9,194.1z" />
        </g>
        <g class="st0">
            <path class="st2" d="M497.8,214.9L469.9,225l-0.9-2.6l3.9-1.4c-3.3-0.7-5.7-2.9-6.9-6.2c-2-5.6,0.5-11.3,6.5-13.5
			c6-2.2,11.6,0.6,13.6,6.2c1.1,3.2,0.8,6.4-1.2,8.9l11.9-4.3L497.8,214.9z M478.8,218.8c4.6-1.7,6.6-5.9,5.1-10.1
			c-1.5-4.2-5.8-6.3-10.4-4.6c-4.6,1.7-6.6,5.9-5,10.2C470,218.5,474.2,220.5,478.8,218.8z" />
        </g>
        <g class="st0">
            <path class="st2" d="M489.5,260.9l-12.1,1.8l-0.4-2.8l11.8-1.8c4.4-0.7,6.3-3.3,5.7-7.3c-0.7-4.5-3.9-6.9-8.6-6.1l-10.9,1.7
			l-0.4-2.8l20.8-3.2l0.4,2.7l-3.8,0.6c2.8,1.1,4.7,3.7,5.2,7.3C497.9,256.1,495.5,260,489.5,260.9z" />
        </g>
        <g class="st0">
            <path class="st2" d="M498.8,269.7l0.1,2.8l-21,1.1l-0.1-2.8L498.8,269.7z M505.4,268.7c1.1-0.1,2,0.8,2.1,2
			c0.1,1.2-0.8,2.1-1.9,2.2c-1.2,0.1-2.1-0.8-2.2-2C503.4,269.7,504.3,268.8,505.4,268.7z" />
        </g>
        <g class="st0">
            <path class="st2" d="M488.8,280.2c6.3,0.2,10.5,5,10.2,11.3c-0.1,3.6-1.7,6.5-4.5,8.1l-1.4-2.2c2.2-1.4,3.3-3.6,3.4-6
			c0.2-4.6-3-8.1-7.9-8.3c-5-0.2-8.3,3-8.5,7.6c-0.1,2.4,0.8,4.7,2.8,6.2l-1.5,2.1c-2.6-1.8-4-4.8-3.8-8.4
			C477.9,284.3,482.5,280,488.8,280.2z" />
        </g>
        <g class="st0">
            <path class="st2" d="M485.8,325.3l-12-2l0.5-2.8l11.8,2c4.4,0.7,7-1.2,7.7-5.1c0.8-4.5-1.5-7.7-6.3-8.5l-10.9-1.8l0.5-2.8
			l29.3,4.9l-0.5,2.8l-12.1-2c2.1,1.9,3.1,4.9,2.5,8.4C495.2,323.4,491.7,326.3,485.8,325.3z" />
        </g>
        <g class="st0">
            <path class="st2" d="M469.8,342c-0.6-1.4-0.6-3.1-0.2-4.7c1.1-3.8,3.9-5.3,7.6-4.2l12.2,3.5l1-3.6l2.3,0.7l-1,3.6l4.4,1.3
			l-0.8,2.7L491,340l-1.8,6.1l-2.3-0.7l1.8-6.1l-12.1-3.5c-2.4-0.7-4,0.2-4.7,2.4c-0.3,1.1-0.3,2.3,0.2,3.3L469.8,342z" />
        </g>
        <g class="st0">
            <path class="st2" d="M470.1,345l1.6,2c-1.8,1.1-3.9,3.3-5,6.1c-1.5,3.7-0.8,5.7,1.1,6.5c5.1,2,6.1-12.3,13.9-9.2
			c3.2,1.3,4.5,5,2.5,10c-1,2.5-2.8,5-4.6,6.2l-1.7-2c1.9-1.2,3.2-3.1,4-5.1c1.4-3.5,0.7-5.6-1.2-6.4c-5.3-2.1-6.3,12.2-13.9,9.2
			c-3.4-1.3-4.4-5.2-2.4-10.3C465.8,348.8,468.1,346.1,470.1,345z" />
        </g>
        <g class="st0">
            <path class="st2" d="M462.9,401l-13.2-18.9l1.5-2.5l22.8,2.9l-1.5,2.5l-19.4-2.5l11.2,16.1L462.9,401z" />
        </g>
        <g class="st0">
            <path class="st2" d="M439.2,413.4l10.7-13.9c-3.7-2.4-8-1.6-10.8,2.1c-1.6,2-2.2,4.4-1.7,6.8l-2.4,0.1c-0.6-2.9,0.2-5.9,2.2-8.5
			c4-5.2,10.3-6,15.2-2.2c4.9,3.8,5.8,10,2.2,14.6c-3.6,4.7-9.7,5.4-14.7,1.5C439.7,413.8,439.5,413.6,439.2,413.4z M451.6,400.8
			l-9.1,11.8c3.5,2.2,7.6,1.6,10.1-1.6C455.1,407.7,454.6,403.6,451.6,400.8z" />
        </g>
        <g class="st0">
            <path class="st2" d="M435.2,434.2l-2-1.9c0.2-0.2,0.4-0.3,0.5-0.5c3-3.2,2.9-7-0.7-10.5l-7.7-7.4l2-2l15.1,14.5l-1.9,2l-3-2.8
			C438.7,428.4,437.9,431.4,435.2,434.2z" />
        </g>
        <g class="st0">
            <path class="st2" d="M406.4,445.1c-4.1-4.9-3.4-11.1,1.2-15c2.6-2.2,5.7-2.9,8.8-1.9l-7.5-9l2.2-1.8l18.4,22.2l-2.1,1.7l-2.7-3.2
			c0.5,3.3-0.8,6.3-3.5,8.5C416.7,450.5,410.5,450,406.4,445.1z M408.6,443.3c3.1,3.8,7.9,4.1,11.3,1.3c3.5-2.9,3.9-7.6,0.8-11.3
			c-3.1-3.8-7.8-4.2-11.3-1.3C406,434.8,405.4,439.5,408.6,443.3z" />
        </g>
        <g class="st0">
            <path class="st2" d="M388.3,459.7l-6.9-11.1l2.3-1.4l1.7,2.8c-0.1-2.5,1.4-5,4.3-6.8c4-2.5,7.8-2,9.8,1.1c1.7,2.8,1.4,6.2-3.7,9.4
			l-5.7,3.5l0.7,1.1c1.9,3.1,4.7,3.6,8,1.6c2.3-1.4,4-3.6,4.6-5.8l2.2,1.1c-0.8,2.7-2.9,5.2-5.8,7
			C395.2,465,391.1,464.3,388.3,459.7z M387.1,452.5l1.8,2.9l5.6-3.5c3.5-2.2,3.7-4.2,2.6-6.1c-1.3-2.1-3.8-2.3-6.6-0.5
			C387.8,447,386.6,449.6,387.1,452.5z" />
        </g>
        <g class="st0">
            <path class="st2" d="M378.1,453.4l-0.2,2.6c-2.1-0.5-5.1-0.2-7.8,1.1c-3.6,1.7-4.5,3.7-3.6,5.5c2.4,4.9,12.8-4.9,16.4,2.6
			c1.5,3.1-0.1,6.7-4.9,9c-2.4,1.2-5.4,1.8-7.6,1.5l0.1-2.6c2.2,0.4,4.4-0.1,6.4-1.1c3.4-1.7,4.3-3.7,3.4-5.5
			c-2.5-5.1-12.9,4.7-16.4-2.6c-1.6-3.3,0.3-6.8,5.2-9.2C372.4,453.2,375.9,452.8,378.1,453.4z" />
        </g>
        <g class="st0">
            <path class="st2" d="M359.9,462l-0.4,2.5c-2-0.7-5.1-0.7-7.8,0.3c-3.8,1.4-4.8,3.2-4.1,5.2c1.9,5.1,13.2-3.5,16,4.3
			c1.2,3.2-0.7,6.6-5.8,8.5c-2.6,0.9-5.6,1.2-7.7,0.7l0.4-2.6c2.2,0.6,4.4,0.3,6.4-0.4c3.6-1.3,4.6-3.3,4-5.1
			c-1.9-5.3-13.3,3.3-16-4.3c-1.2-3.4,1-6.7,6.1-8.6C354.3,461.3,357.8,461.2,359.9,462z" />
        </g>
        <g class="st0">
            <path class="st2" d="M322,480.7l17.1-4c-1.3-4.2-5.3-6.3-9.7-5.2c-2.5,0.6-4.5,2-5.6,4.2l-2-1.4c1.3-2.6,3.9-4.4,7.1-5.2
			c6.4-1.5,11.8,1.8,13.2,7.9c1.4,6.1-1.8,11.4-7.6,12.7c-5.8,1.4-10.9-1.9-12.4-8.1C322.1,481.3,322.1,481,322,480.7z M339.6,478.7
			l-14.5,3.4c1.3,3.9,4.9,6,8.9,5.1C338,486.3,340.2,482.8,339.6,478.7z" />
        </g>
        <g class="st0">
            <path class="st2" d="M295.9,486.2l-1.2-12.1l2.8-0.3l1.2,11.9c0.4,4.4,3,6.5,6.9,6.1c4.5-0.4,7.1-3.5,6.6-8.3l-1.1-11l2.8-0.3
			l2,20.9l-2.7,0.3l-0.4-3.9c-1.3,2.7-3.9,4.4-7.6,4.8C300.2,494.9,296.4,492.3,295.9,486.2z" />
        </g>
        <g class="st0">
            <path class="st2" d="M284.1,476.1c0-0.7,0.2-1.2,0.6-2.3l1.7-5.5l1.9,0l-1.3,5.8c0.8,0.2,1.4,1,1.4,2c0,1.2-0.9,2.2-2.1,2.2
			C285,478.2,284.1,477.3,284.1,476.1z" />
        </g>
        <g class="st0">
            <path class="st2" d="M232.8,489.2l11.4-19.4l2.6,0.4l3.7,18.1l9.4-15.9l2.6,0.4l4.3,22.1l-2.7-0.5l-3.5-18.7l-9.6,16.5l-2.4-0.4
			l-3.6-18.7l-9.6,16.5L232.8,489.2z" />
        </g>
        <g class="st0">
            <path class="st2" d="M213.7,474.4l4.1-12.4l2.6,0.8l-1,3.1c1.9-1.7,4.7-2.1,8-1.1c4.5,1.5,6.5,4.7,5.4,8.2c-1,3.1-3.8,5-9.6,3.1
			l-6.3-2.1l-0.4,1.2c-1.1,3.4,0.2,5.9,3.9,7.1c2.6,0.8,5.3,0.7,7.4-0.2l0.6,2.4c-2.6,1.1-5.9,1.1-9,0
			C214.1,483.1,212,479.5,213.7,474.4z M218.5,468.9l-1.1,3.3l6.3,2.1c3.9,1.3,5.6,0.2,6.3-1.9c0.8-2.3-0.6-4.4-3.8-5.4
			C223.1,465.9,220.4,466.6,218.5,468.9z" />
        </g>
        <g class="st0">
            <path class="st2" d="M212.1,462.4l-2.1,1.5c-1-1.9-3.1-4-5.8-5.3c-3.6-1.7-5.7-1.1-6.6,0.8c-2.3,5,11.9,6.7,8.4,14.3
			c-1.4,3.1-5.2,4.2-10.1,2c-2.5-1.1-4.8-3.1-5.9-4.9l2.1-1.6c1.1,1.9,2.9,3.3,4.9,4.2c3.5,1.6,5.6,0.9,6.4-0.9
			c2.4-5.2-11.8-7-8.4-14.3c1.5-3.3,5.4-4.1,10.4-1.8C208.5,457.9,211.1,460.3,212.1,462.4z" />
        </g>
        <g class="st0">
            <path class="st2"
                d="M165.6,463.7l6.3-9l-11.9-8.3l1.5-2.1l11.9,8.3l6.8-9.8l2.4,1.7l-16,23l-15.8-10.9l1.5-2.1L165.6,463.7z" />
        </g>
        <g class="st0">
            <path class="st2" d="M140.8,439l1.8-2.1c0.2,0.2,0.3,0.3,0.5,0.5c3.3,2.9,7.2,2.5,10.4-1.2l7-8.1l2.1,1.9L149,445.8l-2.1-1.8
			l2.7-3.1C146.8,442.2,143.8,441.5,140.8,439z" />
        </g>
        <g class="st0">
            <path class="st2" d="M131.5,439.1c-0.8,0.8-2.1,0.8-2.9-0.1s-0.9-2.1-0.1-2.9c0.8-0.8,2.1-0.9,3,0
			C132.3,437,132.3,438.3,131.5,439.1z M135.8,433.9l-2-2l14.9-14.9l2,2L135.8,433.9z" />
        </g>
        <g class="st0">
            <path class="st2" d="M107.7,415.2l22.9-18.8l1.7,2.1l-3.2,2.6c3.3-0.5,6.3,0.8,8.5,3.5c3.8,4.6,3.3,10.9-1.6,14.9
			c-4.9,4-11.1,3.3-14.9-1.3c-2.1-2.6-2.9-5.7-1.9-8.8l-9.8,8L107.7,415.2z M124.3,405.1c-3.8,3.1-4.2,7.8-1.4,11.2
			c2.8,3.5,7.5,4,11.3,0.8c3.8-3.1,4.2-7.8,1.4-11.3C132.8,402.5,128.1,402,124.3,405.1z" />
        </g>
        <g class="st0">
            <path class="st2" d="M106.5,383.1l11.1-6.9l1.4,2.3l-2.8,1.7c2.5-0.1,5,1.4,6.8,4.3c2.5,4,2,7.8-1.1,9.8c-2.8,1.7-6.2,1.4-9.4-3.7
			l-3.5-5.7l-1.1,0.7c-3.1,1.9-3.6,4.7-1.6,8c1.4,2.3,3.6,4,5.8,4.6l-1.1,2.2c-2.7-0.8-5.2-2.9-7-5.8
			C101.2,390.1,101.9,386,106.5,383.1z M113.8,382l-2.9,1.8l3.5,5.6c2.2,3.5,4.2,3.7,6.1,2.6c2.1-1.3,2.3-3.8,0.5-6.6
			C119.3,382.7,116.7,381.5,113.8,382z" />
        </g>
        <g class="st0">
            <path class="st2" d="M108.1,362.8l-2.6-0.3c0.6-2.1,0.5-5.1-0.6-7.8c-1.5-3.7-3.4-4.7-5.3-3.9c-5.1,2.1,4,13.1-3.7,16.2
			c-3.2,1.3-6.7-0.5-8.7-5.5c-1-2.5-1.4-5.5-1-7.6l2.6,0.3c-0.5,2.2-0.2,4.4,0.7,6.4c1.4,3.5,3.4,4.5,5.3,3.8
			c5.3-2.1-3.8-13.2,3.7-16.2c3.4-1.4,6.8,0.7,8.8,5.8C108.6,357.1,108.8,360.6,108.1,362.8z" />
        </g>
        <g class="st0">
            <path class="st2" d="M92.6,345.5c-6,1.6-11.4-1.6-13-7.5c-1.6-5.9,1.5-11.4,7.5-13c6-1.6,11.5,1.6,13.1,7.5
			C101.7,338.3,98.5,343.9,92.6,345.5z M87.7,327.7c-4.7,1.3-7,5.3-5.8,9.6c1.2,4.3,5.2,6.7,9.9,5.4c4.7-1.3,7-5.4,5.8-9.7
			C96.5,328.8,92.5,326.5,87.7,327.7z" />
        </g>
        <g class="st0">
            <path class="st2" d="M92,294.3c1.1,1,1.7,2.6,1.9,4.2c0.4,3.9-1.6,6.3-5.4,6.7l-12.6,1.3l0.4,3.7l-2.4,0.2l-0.4-3.7l-4.6,0.5
			l-0.3-2.8l4.6-0.5l-0.6-6.3l2.4-0.2l0.6,6.3l12.4-1.3c2.5-0.2,3.7-1.7,3.4-4c-0.1-1.1-0.6-2.3-1.4-3L92,294.3z" />
        </g>
        <g class="st0">
            <path class="st2" d="M71.7,278.3l2.8,0c0,0.2,0,0.5,0,0.7c0.1,4.4,2.9,7,7.9,7l10.7-0.2l0,2.8l-21,0.3l0-2.7l4.1-0.1
			C73.3,284.8,71.8,282.1,71.7,278.3z" />
        </g>
        <g class="st0">
            <path class="st2" d="M85.1,253.6l-1.5,17.5c4.4,0.1,7.6-3,8-7.6c0.2-2.5-0.5-4.9-2.2-6.7l2-1.4c2.1,2.1,3,5.1,2.7,8.4
			c-0.6,6.5-5.4,10.6-11.6,10.1c-6.2-0.5-10.3-5.3-9.7-11.2c0.5-5.9,5.2-9.8,11.5-9.2C84.4,253.5,84.7,253.6,85.1,253.6z M81.4,271
			l1.3-14.9c-4.1,0-7.3,2.7-7.6,6.8C74.7,267,77.3,270.3,81.4,271z" />
        </g>
        <g class="st0">
            <path class="st2" d="M68.5,244c-1.1-0.2-1.8-1.3-1.6-2.4c0.2-1.1,1.2-1.9,2.3-1.7c1.1,0.2,1.9,1.2,1.7,2.4
			C70.7,243.5,69.6,244.2,68.5,244z M75.2,244.6l0.5-2.8l20.7,3.8l-0.5,2.8L75.2,244.6z" />
        </g>
        <g class="st0">
            <path class="st2" d="M93.7,214c6.1,1.8,9.1,7.3,7.4,13c-1,3.3-3.2,5.7-6.4,6.6l4,1.1l-0.8,2.6l-28.5-8.2l0.8-2.7l12.1,3.5
			c-2.1-2.4-2.7-5.6-1.8-8.8C82.2,215.4,87.5,212.3,93.7,214z M92.9,216.8c-4.7-1.4-8.8,1-10,5.3c-1.2,4.3,1,8.4,5.7,9.8
			c4.7,1.4,8.8-1,10-5.3C99.8,222.3,97.6,218.1,92.9,216.8z" />
        </g>
        <g class="st0">
            <path class="st2" d="M109.2,200.7c0.5,1.4,0.3,3.2-0.3,4.7c-1.5,3.7-4.4,4.8-8,3.3l-11.7-4.9l-1.4,3.5l-2.2-0.9l1.4-3.5l-4.2-1.8
			l1.1-2.6l4.2,1.8l2.5-5.9l2.2,0.9l-2.5,5.9l11.6,4.8c2.3,1,4,0.3,4.9-1.9c0.4-1.1,0.6-2.3,0.2-3.3L109.2,200.7z" />
        </g>
        <g class="st0">
            <path class="st2" d="M87.8,183.9l1.5-3l17.2,9.3l-1,2L87.8,183.9z M110.9,196c-1-0.5-1.4-1.7-0.9-2.8s1.7-1.5,2.8-0.9
			c1,0.5,1.5,1.7,0.9,2.8C113.2,196.1,111.9,196.5,110.9,196z" />
        </g>
    </g>
</svg>